<?xml version="1.0" standalone="no"?>
<!DOCTYPE svg PUBLIC "-//W3C//DTD SVG 20010904//EN"
 "http://www.w3.org/TR/2001/REC-SVG-20010904/DTD/svg10.dtd">
<svg version="1.0" xmlns="http://www.w3.org/2000/svg"
 width="292.000000pt" height="292.000000pt" viewBox="0 0 292.000000 292.000000"
 preserveAspectRatio="xMidYMid meet">
<metadata>
Created by potrace 1.14, written by Peter Selinger 2001-2017
</metadata>
<g transform="translate(0.000000,292.000000) scale(0.100000,-0.100000)"
fill="#000000" stroke="none">
<path d="M0 1460 l0 -1460 1460 0 1460 0 0 1460 0 1460 -1460 0 -1460 0 0
-1460z m1755 1110 c292 -33 491 -179 550 -405 19 -73 19 -213 1 -281 -44 -165
-184 -302 -358 -348 -39 -11 -46 -15 -24 -15 51 -2 150 -32 221 -69 201 -104
305 -312 276 -550 -35 -289 -236 -479 -567 -537 -70 -12 -191 -15 -635 -15
l-549 0 0 1115 0 1115 498 0 c273 0 538 -5 587 -10z"/>
<path d="M1140 1936 l0 -286 193 0 c269 0 350 18 438 97 58 52 82 111 82 198
0 118 -51 197 -162 248 -42 20 -67 22 -298 25 l-253 4 0 -286z"/>
<path d="M1140 1010 l0 -310 193 0 c330 0 441 23 527 109 56 56 80 119 80 206
0 154 -79 246 -247 290 -43 11 -118 15 -305 15 l-248 0 0 -310z"/>
</g>
</svg>
